<?xml version="1.0" encoding="iso-8859-1"?>
<!-- Generator: Adobe Illustrator 19.0.0, SVG Export Plug-In . SVG Version: 6.00 Build 0)  -->
<svg version="1.1" id="Capa_1" xmlns="http://www.w3.org/2000/svg" xmlns:xlink="http://www.w3.org/1999/xlink" x="0px" y="0px"
	 viewBox="0 0 512.001 512.001" style="enable-background:new 0 0 512.001 512.001;" xml:space="preserve">
<polygon style="fill:#E8EAE9;" points="447.727,254.19 257.093,64.571 67.5,254.164 47.701,234.366 257.04,25.025 467.473,234.34 
	"/>
<path style="fill:#FFD15C;" d="M469.333,202.665H42.667C19.2,202.665,0,221.866,0,245.332v222.933
	c0,23.467,19.2,42.667,42.667,42.667h426.667c23.467,0,42.667-19.2,42.667-42.667V245.332
	C512,221.866,492.8,202.665,469.333,202.665z"/>
<rect x="46.933" y="249.599" style="fill:#FFFFFF;" width="417.07" height="214.4"/>
<rect x="46.933" y="249.599" style="fill:#F3F3F3;" width="417.07" height="28.8"/>
<g>
	<path style="fill:#F3705A;" d="M122.667,330.665c-2.133,1.067-3.2,3.2-3.2,6.4s1.067,4.267,3.2,6.4c2.133,1.067,7.467,3.2,16,5.333
		c8.533,2.133,14.933,5.333,20.267,9.6c4.267,4.267,7.467,10.667,7.467,18.133c0,7.466-3.2,14.933-8.533,19.2
		c-6.401,5.334-13.868,7.467-23.468,7.467c-13.867,0-26.667-5.333-38.4-16l11.733-14.933c9.6,8.533,18.133,12.8,26.667,12.8
		c3.2,0,6.4-1.067,8.533-2.133c2.133-1.067,3.2-3.2,3.2-6.4s-1.067-5.333-3.2-6.4c-2.133-1.067-6.4-3.2-12.8-5.333
		c-10.667-2.133-18.133-5.333-22.4-9.6c-5.333-4.267-7.467-10.667-7.467-19.2s3.2-14.933,9.6-19.2s13.867-6.4,22.4-6.4
		c6.4,0,11.733,1.067,18.133,3.2c6.4,2.133,10.667,5.333,16,8.533l-9.6,14.933c-7.467-6.4-16-8.533-24.533-8.533
		C126.933,328.531,124.8,328.531,122.667,330.665z"/>
	<path style="fill:#F3705A;" d="M246.4,402.132l-8.533-19.2h-37.333l-8.533,19.2h-21.333l38.4-89.6h19.2l38.4,89.6H246.4z
		 M219.733,339.199L208,364.798h22.4L219.733,339.199z"/>
	<path style="fill:#F3705A;" d="M278.4,402.132v-89.6h20.267v71.467h38.4v18.133H278.4z"/>
	<path style="fill:#F3705A;" d="M414.933,312.531v18.133h-44.8v18.134h40.533v17.067h-40.533v18.133H416v18.133h-66.133v-89.6
		H414.933L414.933,312.531z"/>
</g>
<circle style="fill:#415A6B;" cx="256" cy="52.269" r="51.2"/>
<circle style="fill:#344A5E;" cx="256" cy="52.269" r="22.4"/>
<g>
</g>
<g>
</g>
<g>
</g>
<g>
</g>
<g>
</g>
<g>
</g>
<g>
</g>
<g>
</g>
<g>
</g>
<g>
</g>
<g>
</g>
<g>
</g>
<g>
</g>
<g>
</g>
<g>
</g>
</svg>
